<svg width="157" height="113" viewBox="0 0 157 113" fill="none" xmlns="http://www.w3.org/2000/svg">
<path d="M0 0H157V113H0V0Z" fill="white"/>
<path d="M107.166 102C98.0059 102 91.2259 99.82 86.8259 95.46C82.4659 91.06 80.2859 84.28 80.2859 75.12V47.52C80.2859 38.28 82.4659 31.48 86.8259 27.12C91.1859 22.72 97.9259 20.56 107.046 20.64H121.566C129.086 20.64 134.826 22.2 138.786 25.32C142.746 28.4 145.046 33.28 145.686 39.96C145.926 41.64 145.606 42.92 144.726 43.8C143.846 44.68 142.566 45.12 140.886 45.12C137.846 45.12 136.086 43.44 135.606 40.08C135.206 36.4 133.926 33.92 131.766 32.64C129.646 31.36 126.246 30.72 121.566 30.72H107.046C102.806 30.68 99.4659 31.16 97.0259 32.16C94.6259 33.16 92.9059 34.9 91.8659 37.38C90.8659 39.82 90.3659 43.2 90.3659 47.52V75.12C90.3659 79.4 90.8659 82.76 91.8659 85.2C92.9059 87.64 94.6459 89.38 97.0859 90.42C99.5259 91.42 102.886 91.92 107.166 91.92H121.566C126.246 91.92 129.646 91.28 131.766 90C133.926 88.68 135.206 86.2 135.606 82.56C136.086 79.2 137.846 77.52 140.886 77.52C142.566 77.52 143.846 77.96 144.726 78.84C145.606 79.72 145.926 81 145.686 82.68C145.046 89.4 142.746 94.3 138.786 97.38C134.826 100.46 129.086 102 121.566 102H107.166Z" fill="#00BCD4"/>
<path d="M34.82 102C27.98 102 22.64 100.62 18.8 97.86C15 95.1 12.62 90.84 11.66 85.08C11.5 83.32 11.86 82 12.74 81.12C13.62 80.24 14.9 79.8 16.58 79.8C18.26 79.8 19.48 80.2 20.24 81C21.04 81.8 21.58 83.04 21.86 84.72C22.46 87.48 23.74 89.38 25.7 90.42C27.7 91.42 30.74 91.92 34.82 91.92H52.1C57.26 91.92 60.76 91 62.6 89.16C64.48 87.28 65.42 83.8 65.42 78.72C65.42 73.56 64.46 70.04 62.54 68.16C60.62 66.24 57.14 65.28 52.1 65.28H37.22C29.66 65.28 24.04 63.44 20.36 59.76C16.72 56.04 14.9 50.4 14.9 42.84C14.9 35.32 16.7 29.74 20.3 26.1C23.94 22.46 29.54 20.64 37.1 20.64H51.38C57.74 20.64 62.72 21.94 66.32 24.54C69.96 27.14 72.26 31.12 73.22 36.48C73.46 38.2 73.14 39.52 72.26 40.44C71.38 41.32 70.06 41.76 68.3 41.76C66.7 41.76 65.5 41.34 64.7 40.5C63.9 39.66 63.38 38.44 63.14 36.84C62.5 34.48 61.28 32.88 59.48 32.04C57.68 31.16 54.98 30.72 51.38 30.72H37.1C32.3 30.72 29.08 31.58 27.44 33.3C25.8 34.98 24.98 38.16 24.98 42.84C24.98 47.56 25.82 50.8 27.5 52.56C29.18 54.32 32.42 55.2 37.22 55.2H52.1C59.98 55.2 65.84 57.12 69.68 60.96C73.56 64.8 75.5 70.72 75.5 78.72C75.5 86.68 73.58 92.56 69.74 96.36C65.9 100.12 60.02 102 52.1 102H34.82Z" fill="#00BCD4"/>
<path fill-rule="evenodd" clip-rule="evenodd" d="M83.9975 98.2885L83.9846 98.2755C78.5917 92.8331 76.2859 84.8335 76.2859 75.12V47.52C76.2859 37.746 78.5827 29.7111 83.9908 24.2983C89.4034 18.8405 97.3852 16.558 107.063 16.64H121.566C129.556 16.64 136.315 18.2854 141.252 22.1709C146.319 26.1174 148.94 32.1465 149.659 39.4932C149.984 41.9066 149.595 44.5875 147.554 46.6284C145.692 48.4912 143.245 49.12 140.886 49.12C138.606 49.12 136.322 48.47 134.524 46.7534C132.781 45.0899 131.964 42.8692 131.646 40.6457L131.637 40.5791L131.629 40.5122C131.298 37.4643 130.36 36.4567 129.727 36.0812L129.713 36.0728L129.698 36.0643C128.545 35.3678 126.063 34.72 121.566 34.72H107.027L107.008 34.7198C103.024 34.6822 100.292 35.147 98.554 35.8566C97.1714 36.4354 96.2079 37.3778 95.5608 38.9125C94.8478 40.6616 94.3659 43.4424 94.3659 47.52V75.12C94.3659 79.1437 94.8445 81.9039 95.5564 83.6567C96.1883 85.1244 97.1616 86.0977 98.6293 86.7296C100.382 87.4414 103.142 87.92 107.166 87.92H121.566C126.05 87.92 128.531 87.2758 129.689 86.5816C130.38 86.1554 131.303 85.0948 131.63 82.1231L131.637 82.0585L131.646 81.9943C131.964 79.7708 132.781 77.5501 134.524 75.8866C136.322 74.17 138.606 73.52 140.886 73.52C143.245 73.52 145.692 74.1488 147.554 76.0116C149.595 78.0521 149.984 80.7325 149.66 83.1456C148.941 90.5293 146.321 96.5868 141.242 100.537C136.306 104.377 129.552 106 121.566 106H107.166C97.4525 106 89.4528 103.694 84.0105 98.3013L83.9975 98.2885ZM145.686 82.68C145.926 81 145.606 79.72 144.726 78.84C143.846 77.96 142.566 77.52 140.886 77.52C137.846 77.52 136.086 79.2 135.606 82.56C135.206 86.2 133.926 88.68 131.766 90C129.646 91.28 126.246 91.92 121.566 91.92H107.166C102.886 91.92 99.5259 91.42 97.0859 90.42C94.6459 89.38 92.9059 87.64 91.8659 85.2C90.8659 82.76 90.3659 79.4 90.3659 75.12V47.52C90.3659 43.2 90.8659 39.82 91.8659 37.38C92.9059 34.9 94.6259 33.16 97.0259 32.16C99.4659 31.16 102.806 30.68 107.046 30.72H121.566C126.246 30.72 129.646 31.36 131.766 32.64C133.926 33.92 135.206 36.4 135.606 40.08C136.086 43.44 137.846 45.12 140.886 45.12C142.566 45.12 143.846 44.68 144.726 43.8C145.606 42.92 145.926 41.64 145.686 39.96C145.046 33.28 142.746 28.4 138.786 25.32C134.826 22.2 129.086 20.64 121.566 20.64H107.046C97.9259 20.56 91.1859 22.72 86.8259 27.12C82.4659 31.48 80.2859 38.28 80.2859 47.52V75.12C80.2859 84.28 82.4659 91.06 86.8259 95.46C91.2259 99.82 98.0059 102 107.166 102H121.566C129.086 102 134.826 100.46 138.786 97.38C142.746 94.3 145.046 89.4 145.686 82.68Z" fill="#00BCD4"/>
<path fill-rule="evenodd" clip-rule="evenodd" d="M16.4574 101.102L16.4493 101.096C11.6041 97.5773 8.80269 92.2672 7.71443 85.7376L7.68992 85.5906L7.67643 85.4422C7.4559 83.0163 7.88396 80.3192 9.91157 78.2916C11.7743 76.4288 14.221 75.8 16.58 75.8C18.7745 75.8 21.2738 76.309 23.1033 78.2066C24.6706 79.7935 25.4295 81.8922 25.7868 83.9518C26.2041 85.8001 26.9057 86.5175 27.5351 86.8651C28.706 87.4337 30.9805 87.92 34.82 87.92H52.1C57.1079 87.92 59.1432 86.9599 59.7716 86.3316C60.4585 85.6446 61.42 83.5967 61.42 78.72C61.42 73.7565 60.4354 71.6974 59.7415 71.018L59.7265 71.0033L59.7116 70.9884C58.9696 70.2464 56.8966 69.28 52.1 69.28H37.22C29.0797 69.28 22.2442 67.301 17.5316 62.5884L17.5162 62.5731L17.501 62.5575C12.8551 57.8095 10.9 50.9737 10.9 42.84C10.9 34.758 12.8298 27.9649 17.456 23.2872L17.4638 23.2794L17.4716 23.2716C22.1514 18.5918 28.9745 16.64 37.1 16.64H51.38C58.2266 16.64 64.1356 18.0317 68.6537 21.2913C73.3157 24.6251 76.0564 29.6279 77.1573 35.7748L77.171 35.8508L77.1816 35.9272C77.5251 38.3887 77.1573 41.107 75.1506 43.2049L75.1199 43.237L75.0884 43.2684C73.1937 45.1631 70.6766 45.76 68.3 45.76C66.0323 45.76 63.6095 45.1549 61.8035 43.2586M61.8035 43.2586C60.3183 41.6992 59.5653 39.7135 59.2271 37.7026C58.8206 36.3369 58.2581 35.8839 57.7885 35.6647L57.7557 35.6494L57.7232 35.6335C56.7476 35.1566 54.7824 34.72 51.38 34.72H37.1C32.4241 34.72 30.7433 35.632 30.335 36.0603L30.3187 36.0773L30.3023 36.0941C29.8414 36.5663 28.98 38.3057 28.98 42.84C28.98 47.3775 29.8475 49.2262 30.3934 49.7981C30.8536 50.2802 32.5777 51.2 37.22 51.2H52.1C60.5576 51.2 67.6295 53.2576 72.5011 58.1243C77.4271 63.0046 79.5 70.1529 79.5 78.72C79.5 87.244 77.4486 94.3592 72.5536 99.2032L72.5461 99.2106L72.5385 99.218C67.6609 103.994 60.5747 106 52.1 106H34.82C27.501 106 21.2283 104.531 16.4655 101.108L16.4574 101.102M69.68 60.96C65.84 57.12 59.98 55.2 52.1 55.2H37.22C32.42 55.2 29.18 54.32 27.5 52.56C25.82 50.8 24.98 47.56 24.98 42.84C24.98 38.16 25.8 34.98 27.44 33.3C29.08 31.58 32.3 30.72 37.1 30.72H51.38C54.98 30.72 57.68 31.16 59.48 32.04C61.28 32.88 62.5 34.48 63.14 36.84C63.38 38.44 63.9 39.66 64.7 40.5C65.5 41.34 66.7 41.76 68.3 41.76C70.06 41.76 71.38 41.32 72.26 40.44C73.14 39.52 73.46 38.2 73.22 36.48C72.26 31.12 69.96 27.14 66.32 24.54C62.72 21.94 57.74 20.64 51.38 20.64H37.1C29.54 20.64 23.94 22.46 20.3 26.1C16.7 29.74 14.9 35.32 14.9 42.84C14.9 50.4 16.72 56.04 20.36 59.76C24.04 63.44 29.66 65.28 37.22 65.28H52.1C57.14 65.28 60.62 66.24 62.54 68.16C64.46 70.04 65.42 73.56 65.42 78.72C65.42 83.8 64.48 87.28 62.6 89.16C60.76 91 57.26 91.92 52.1 91.92H34.82C30.74 91.92 27.7 91.42 25.7 90.42C23.74 89.38 22.46 87.48 21.86 84.72C21.58 83.04 21.04 81.8 20.24 81C19.48 80.2 18.26 79.8 16.58 79.8C14.9 79.8 13.62 80.24 12.74 81.12C11.86 82 11.5 83.32 11.66 85.08C12.62 90.84 15 95.1 18.8 97.86C22.64 100.62 27.98 102 34.82 102H52.1C60.02 102 65.9 100.12 69.74 96.36C73.58 92.56 75.5 86.68 75.5 78.72C75.5 70.72 73.56 64.8 69.68 60.96Z" fill="#00BCD4"/>
<path d="M108.632 1.50189L108.277 112.961L54.4179 112.789L54.7732 1.33021L108.632 1.50189Z" fill="white"/>
<circle cx="54.3632" cy="60.3021" r="9" transform="rotate(-9.50937 54.3632 60.3021)" fill="#00BCD4"/>
<rect x="50" y="88" width="60" height="18" fill="#00BCD4"/>
<rect x="50" y="16.7" width="60" height="18.1" fill="#00BCD4"/>
</svg>
