<svg xmlns="http://www.w3.org/2000/svg" width="256" height="256"><path fill="#1976D2" fill-opacity=".016" fill-rule="evenodd" d="M0 128.004v128.004l128.25-.254 128.25-.254.254-127.75L257.008 0H0zm.485.496c0 70.4.119 99.053.265 63.672s.146-92.98 0-128S.485 58.1.485 128.5"/><path fill="#1976D2" fill-opacity=".338" fill-rule="evenodd" d="M103.5 1.17C80.583 5.509 62 28.14 62 51.71V58l-20.25.006c-11.137.003-21.95.477-24.027 1.054-4.413 1.226-10.107 5.926-12.524 10.338-1.557 2.843-1.722 10.645-1.975 93.527-.221 72.467-.022 90.583 1 91.221 1.472.917 223.817 1.159 226.197.246 1.382-.53 1.579-3.814 1.579-26.297v-25.69l8.25.113c4.537.063 8.813-.076 9.5-.309.958-.324 1.25-6.594 1.25-26.816V149l-9.75.001-9.75.001.291-23.751c.16-13.063.067-24.651-.206-25.751-.47-1.895-1.328-2-16.29-2H199.5l-.271-19.75-.271-19.75H166l-.015-5.75c-.035-13.614-5.593-26.805-15.485-36.752-7.168-7.207-13.666-10.855-24.085-13.52-8.239-2.107-14.826-2.339-22.915-.808m50.955 169.285c-3 2.999-3.132 6.415-.382 9.91 2.479 3.152 7.605 3.574 10.756.885 3.178-2.712 3.261-8.16.171-11.25-2.78-2.78-7.515-2.576-10.545.455M26.734 214.994c-3.822 3.007-3.871 8.966-.099 11.933 3.495 2.75 6.911 2.618 9.91-.382 6.816-6.816-2.254-17.495-9.811-11.551M55 213.689c-5.652 2.156-6.983 9.606-2.365 13.238 3.495 2.75 6.911 2.618 9.91-.382 2.916-2.915 3.221-7.418.705-10.392-1.878-2.219-5.812-3.395-8.25-2.464M79 217c-2.403 2.403-2.538 4.786-.443 7.777 1.517 2.167 2.046 2.223 20.845 2.223 17.416 0 19.449-.177 20.943-1.829 2.186-2.415 2.103-6.455-.174-8.516-1.564-1.416-4.529-1.655-20.5-1.655-17.338 0-18.814.143-20.671 2"/><path fill="#1976D2" fill-opacity=".41" fill-rule="evenodd" d="M109.571 13.571c-.867.868-1.571 3.245-1.571 5.308 0 3.284-.537 4.115-4.443 6.868-5.593 3.942-7.926 8.303-7.959 14.88-.048 9.282 7.867 17.288 17.152 17.351 5.932.04 9.299 5.858 5.421 9.367-3.572 3.233-10.171 1.16-10.171-3.194 0-3.384-2.939-6.151-6.534-6.151-9.06 0-7.874 13.083 1.82 20.082 3.699 2.671 4.275 3.615 4.714 7.723.413 3.87.973 4.905 3.231 5.983 2.146 1.024 3.217 1.047 5 .108 3.17-1.67 3.736-2.804 3.754-7.525.013-3.656.365-4.273 3.076-5.396 6.438-2.667 10.54-12.459 8.547-20.402-1.52-6.053-10-12.573-16.353-12.573-6.14 0-9.451-5.703-5.426-9.345 3.722-3.368 10.148-.893 10.186 3.924.036 4.423 4.648 7.168 8.754 5.209 6.08-2.901 3.069-15.537-4.769-20.012-3.624-2.07-3.985-2.647-3.992-6.371-.009-4.727-2.275-7.405-6.265-7.405-1.43 0-3.307.707-4.172 1.571M12.869 61.868q-4.58 2.905-6.725 7.334C4.001 73.63 4 73.654 4 163.843v90.212l48.25-.277 48.25-.278 6-3.919c17.416-11.377 33.517-26.024 44.18-40.191l5.548-7.371 47.136-.259 47.136-.26.267-25.593.266-25.593-15.175-.657c-8.347-.361-24.495-.657-35.886-.657h-20.709l1.32-5.678c2.163-9.308 3.655-28.229 2.921-37.072L182.82 98H199V59h-33.824l-.691 4.09c-1.156 6.838-8.178 19.56-14.026 25.407-9.523 9.523-23.33 15.451-36.073 15.488-23.46.068-44.97-16.563-50.776-39.26L62.273 59.5l-22.412-.268-22.412-.268zM156.4 168.436c-6.618 2.863-5.766 13.251 1.23 15.007 7.736 1.942 13.402-6.996 8.12-12.806-2.94-3.235-5.544-3.848-9.35-2.201M25.455 215.455c-3.111 3.11-3.194 7.574-.205 11.049 4.184 4.863 12.87 2.781 14.23-3.411 1.779-8.102-8.153-13.511-14.025-7.638m26 0c-3.119 3.119-3.203 7.602-.205 10.934 3.924 4.362 10.672 3.596 13.313-1.511 4.329-8.371-6.428-16.104-13.108-9.423m28.256.558c-3.3 2.595-3.619 7.079-.711 9.987 1.856 1.856 3.333 2 20.545 2h18.546l2.55-2.55c1.985-1.985 2.404-3.15 1.889-5.25-1.338-5.462-2.113-5.675-21.853-6.01-17.366-.294-18.388-.205-20.966 1.823"/><path fill="#1976D2" fill-opacity=".296" fill-rule="evenodd" d="M15.5 60.573C8.354 64.289 4.048 71.213 4.038 79c-.007 5.854 3.231 11.54 8.805 15.458l4.326 3.042 35.579.298 35.579.299-5.914-4.462c-9.416-7.104-16.746-18.221-19.376-29.385L61.801 59l-21.651.006c-17.659.005-22.203.294-24.65 1.567m150.132-.323c-1.586 6.494-5.403 16.045-8.065 20.181-3.165 4.916-10.464 12.31-15.567 15.77-2.396 1.624-1.768 1.696 15.093 1.747 9.676.028 23.064-.242 29.75-.602L199 96.693V79.428c0-9.495-.273-17.976-.607-18.846-.518-1.351-2.933-1.582-16.531-1.582-11.91 0-16.002.315-16.23 1.25m-14.244 91.076c-7.531 2.841-13.192 8.658-15.951 16.392-4.063 11.39 1.623 25.143 12.673 30.649l5.283 2.633H250v-51l-47.75.076c-33.947.054-48.65.416-50.862 1.25m2.535 18.597c-3.625 3.625-3.727 6.968-.334 11 5.13 6.097 14.411 2.604 14.411-5.423 0-7.873-8.438-11.216-14.077-5.577"/></svg>