<svg xmlns="http://www.w3.org/2000/svg" width="256" height="256"><path fill="#1976D2" fill-opacity=".016" fill-rule="evenodd" d="M0 128.004v128.004l128.25-.254 128.25-.254.254-127.75L257.008 0H0zm.485.496c0 70.4.119 99.053.265 63.672s.146-92.98 0-128S.485 58.1.485 128.5"/><path fill="#1976D2" fill-opacity=".147" fill-rule="evenodd" d="M47.5 48c-1.1.473-3.265.891-4.812.93-3.992.099-12.526 3.005-16.972 5.778-8.555 5.335-13.439 12.383-17.577 25.363-1.476 4.627-1.474 26.237.002 30.858 5.728 17.935 12.279 24.987 28.579 30.77 3.979 1.412 8.887 1.705 29.28 1.748 24.448.053 24.507.048 28-2.406 4.536-3.187 6.258-5.582 7.563-10.519 1.902-7.19-1.743-15.043-8.607-18.545C89.478 110.203 87.03 110 69.162 110c-25.007 0-26.258-.382-28.095-8.59-1.744-7.795-.003-16.662 3.594-18.301 1.724-.786 26.979-1.088 86.636-1.036 97.596.085 88.831-.912 91.763 10.441 1.513 5.859 2.481 7.591 6.001 10.736 3.967 3.545 4.563 3.75 10.92 3.75 7.412 0 12.293-2.317 14.808-7.03 1.823-3.415.949-19.061-1.394-24.97-3.422-8.63-9.933-16.353-17.125-20.311-5.019-2.763-14.387-5.637-18.461-5.664-2.03-.014-3.969-.475-4.309-1.025-.773-1.251-163.088-1.251-166 0m188 102.207c-7.012 2.451-10.143 6.156-12.5 14.793-2.037 7.466-2.962 8.753-6.868 9.553-1.998.41-40.532.93-85.632 1.155-93.253.467-95.5.318-95.5-6.304 0-3.526-4.319-10.608-8.023-13.154-3.86-2.654-12.095-3.063-17.36-.863C6.112 156.851 2 161.719 2 164.404c0 .878-.45 1.596-1 1.596-1.304 0-1.304 6.694 0 7.5.55.34 1 1.851 1 3.359s.396 3.168.879 3.691c.484.522 1.42 2.64 2.08 4.706C6.378 189.696 14.482 200 16.555 200c.795 0 1.445.399 1.445.887 0 .489 3.031 2.176 6.735 3.75l6.736 2.863H226.5l6-2.96c3.3-1.628 6.15-3.315 6.333-3.75.184-.434.919-.79 1.634-.79 3.618 0 14.533-17.223 14.533-22.931 0-1.086.518-3.112 1.151-4.502.858-1.882.87-4.251.045-9.297-1.29-7.896-4.084-11.023-11.657-13.048-5.247-1.404-5.069-1.403-9.039-.015M.252 169.5c.011 2.2.216 2.982.455 1.738s.23-3.044-.02-4-.446.062-.435 2.262"/><path fill="#1976D2" fill-opacity=".215" fill-rule="evenodd" d="M37.779 50.539c-20.118 5.503-29.85 19.79-29.921 43.932-.04 13.411.587 17.201 4.171 25.189 4.916 10.956 13.163 17.778 25.971 21.483 3.124.903 11.839 1.31 28.5 1.329 21.884.026 24.278-.14 27.156-1.882 7.304-4.421 9.589-15.24 4.76-22.537-4.557-6.887-7.047-7.516-30.916-7.82-12.667-.162-21.849-.701-23.14-1.36C41.151 107.234 40 103.704 40 95.5c0-9.344 1.25-12.197 5.909-13.491 5.25-1.459 165.718-1.361 170.192.104 4.601 1.506 6.661 4.117 7.462 9.457 1.306 8.714 7.023 14.259 15.496 15.03 4.451.406 6.169.075 9.441-1.817 5.933-3.431 7.759-7.667 7.088-16.441-.571-7.476-1.162-9.447-5.419-18.085-4.778-9.695-11.122-14.576-24.669-18.98l-7-2.276-88 .124c-68.476.096-89.047.41-92.721 1.414M236.5 150.737c-5.787.829-12.5 7.914-12.5 13.193 0 1.116-.722 3.834-1.604 6.039-1.322 3.304-2.28 4.192-5.437 5.042-2.533.682-33.538.94-91.484.76l-87.652-.271-1.824-2.253c-1.003-1.239-2.136-4.099-2.517-6.356-.487-2.878-1.856-5.265-4.588-7.997-3.742-3.742-4.152-3.894-10.526-3.894-7.264 0-11.831 2.005-14.765 6.482-1.898 2.898-2.171 13.028-.464 17.221 6.048 14.856 10.226 19.695 21.732 25.168L32.5 207.5h95.599c68.425 0 96.281-.318 98-1.119 1.32-.616 4.816-2.18 7.768-3.476 12.308-5.404 20.39-18.211 21.71-34.405.471-5.774.232-7.613-1.366-10.5-3.083-5.57-9.931-8.379-17.711-7.263"/><path fill="#1976D2" fill-opacity=".113" fill-rule="evenodd" d="M37.397 51.429C31.597 53.229 27 55.358 27 56.244c0 .416-.658.756-1.463.756-2.374 0-9.477 8.069-12.274 13.944-6.348 13.333-6.886 32.4-1.323 46.806.691 1.787 1.688 3.25 2.217 3.25.528 0 .718.394.42.875-.64 1.036 4.121 7.753 7.571 10.682 3.444 2.924 10.604 6.227 17.247 7.958C43.632 141.618 50.957 142 67.903 142h22.805l2.646-2.452c1.455-1.349 2.649-2.136 2.653-1.75.003.386.9-.648 1.993-2.298 2.482-3.748 2.792-13.566.5-15.857-.825-.825-1.5-1.952-1.5-2.503s-1.463-2.047-3.25-3.322c-3.143-2.242-3.971-2.323-25.131-2.469-23.959-.165-25.85-.557-28.028-5.807-1.628-3.927-2.001-14.77-.648-18.869 2.149-6.512-2.662-6.168 87.057-6.224 44.825-.028 83.639.13 86.252.351 6.765.572 10.051 3.911 11.591 11.779 1.775 9.063 7.155 13.421 16.572 13.421 5.63 0 11.648-4.235 13.16-9.261 2.266-7.534-2.761-25.395-9.367-33.277-1.845-2.201-9.163-7.298-13.208-9.197-9.144-4.296-8.996-4.29-101.966-4.197-68.672.068-89.454.373-92.637 1.361m198.339 100.418c-1.52.359-4.262 1.854-6.095 3.322-2.729 2.186-3.651 3.983-5.096 9.932-.971 3.994-2.278 7.743-2.905 8.331-3.667 3.436-7.128 3.568-93.914 3.568-98.291 0-91.914.626-94.677-9.297-1.681-6.04-4.263-9.348-8.764-11.228-6.466-2.702-13.65-1.201-18.775 3.925-2.159 2.158-2.51 3.408-2.51 8.929 0 14.154 8.215 27.509 20.331 33.051 12.107 5.537 13.647 5.62 104.926 5.62 73.658 0 85.044-.201 92.143-1.628 21.505-4.322 32.04-15.765 34.14-37.084 1.122-11.382-2.245-16.297-12.04-17.573-2.2-.286-5.244-.227-6.764.132"/></svg>