<svg xmlns="http://www.w3.org/2000/svg" width="256" height="256"><path fill="#1976D2" fill-opacity=".016" fill-rule="evenodd" d="M0 128.004v128.004l128.25-.254 128.25-.254.254-127.75L257.008 0H0zm.485.496c0 70.4.119 99.053.265 63.672s.146-92.98 0-128S.485 58.1.485 128.5"/><path fill="#1976D2" fill-opacity=".115" fill-rule="evenodd" d="M98.305 20.46c-5.266 1.335-14.163 4.764-20.82 8.026-10.837 5.31-12.39 6.456-22.918 16.926-9.719 9.665-11.899 12.454-15.642 20.007-4.303 8.684-4.349 8.889-4.371 19.429-.021 10.577.008 10.707 4.114 18.464l4.136 7.812-2.501.951c-5.048 1.919-20.421 13.285-25.742 19.032-3.265 3.527-7.207 9.408-9.768 14.573-3.977 8.021-4.319 9.347-4.64 17.992-.427 11.512 1.847 19.919 7.946 29.37 5.147 7.977 20.728 23.633 27.235 27.367 5.41 3.104 17.852 8.404 21.122 8.997 1.174.213 5.264 1.29 9.089 2.393 15.233 4.392 19.258 4.703 60.455 4.661 33.368-.034 40.975-.314 49-1.805 33.379-6.2 52.903-12.184 68.5-20.994 11.933-6.74 12.505-7.448 12.476-15.45-.014-3.691-.433-8.511-.932-10.711s-1.185-6.025-1.526-8.5-1.994-9.416-3.675-15.424c-1.682-6.008-3.192-11.858-3.358-13-.87-6.015-9.699-31.48-16.063-46.332-.768-1.791-1.396-3.482-1.396-3.757 0-.276-2.547-5.335-5.659-11.244C213.963 71.39 203.165 56.029 192.97 46c-6.309-6.207-21.237-17.101-25.47-18.588-1.1-.387-4.25-1.699-7-2.916-14.812-6.556-44.62-8.49-62.195-4.036M111 33.643c-10.038 2.056-18.831 4.985-26.915 8.969-7.499 3.695-11.192 6.352-18.15 13.06C54.413 66.779 50 74.764 50 84.506c0 5.609.517 7.684 3.139 12.604 1.727 3.24 3.458 5.89 3.847 5.89s2.351 1.597 4.361 3.548c2.5 2.428 3.653 4.437 3.653 6.365 0 3.484-3.473 8.087-6.101 8.087-5.196 0-26.482 13.453-33.031 20.877-2.243 2.543-5.482 7.323-7.197 10.623-2.7 5.195-3.112 7.006-3.076 13.5.064 11.263 3.814 18.486 15.843 30.515 11.733 11.733 17.337 14.767 37.062 20.064 9.642 2.59 20.091 3.96 41.362 5.423 12.208.839 21.068.576 51.138-1.517 10.077-.701 39.251-6.728 50.98-10.53 9.545-3.095 24.068-9.543 27.219-12.085 1.577-1.271 1.59-1.981.176-9.87-1.576-8.795-5.658-25.226-9.938-40-1.354-4.675-2.472-8.95-2.484-9.5-.011-.55-.89-2.8-1.953-5s-1.947-4.471-1.966-5.046c-.084-2.594-10.814-26.813-16.326-36.851-11.233-20.456-23.827-35.545-37.208-44.579-9.017-6.089-15.102-8.8-25-11.143-7.857-1.859-28.585-3.244-33.5-2.238"/><path fill="#1976D2" fill-opacity=".527" fill-rule="evenodd" d="M114 18.31c-.275.274-3.214.724-6.532.999-26.186 2.174-56.193 22.508-68.253 46.251-6.859 13.505-6.388 28.285 1.289 40.447 1.373 2.174 2.496 4.136 2.496 4.359s-3.037 2.226-6.75 4.451c-9.099 5.453-11.523 7.385-20.098 16.025-19.985 20.136-21.101 44.453-3.149 68.638 13.704 18.461 33.528 28.961 65.497 34.69 11.858 2.125 15.854 2.33 45.5 2.33 35.217 0 48.573-1.182 70-6.196 5.775-1.352 11.625-2.667 13-2.924 3.243-.604 20.761-6.335 24-7.851 10.394-4.865 18.513-9.328 21.604-11.875l3.643-3.003-.664-8.575c-2.112-27.31-19.239-82.226-34.107-109.356-8.392-15.314-11.699-20.311-20.215-30.551-17.898-21.521-40.658-34.886-62.306-36.587-16.899-1.328-24.51-1.716-24.955-1.272m-8.598 16.206c-8.656 1.585-20.284 6.315-28.368 11.54C61.022 56.406 49 73.256 49 85.351c0 5.878 4.829 15.275 10.502 20.439 3.648 3.319 4.498 4.736 4.498 7.497 0 3.92-1.565 5.528-8 8.22-10.661 4.46-20.659 11.123-28.595 19.059-6.901 6.901-8.434 9.063-10.259 14.468-5.022 14.87-.749 27.529 14.332 42.466 11.832 11.719 21.713 16.366 45.022 21.173 17.48 3.604 57.278 5 80 2.805 27.472-2.653 59.768-10.944 76.746-19.701l7.746-3.996-.592-5.64c-.326-3.103-1.665-9.916-2.977-15.141s-2.59-10.75-2.842-12.278c-1.111-6.728-9.848-33.716-15.196-46.938-4.299-10.628-15.012-32.824-16.307-33.784-.371-.275-1.852-2.525-3.291-5-4.144-7.123-15.193-19.938-23.064-26.75-7.547-6.531-18.709-12.909-27.223-15.556-11.581-3.6-31.074-4.563-44.098-2.178"/><path fill="#1976D2" fill-opacity=".315" fill-rule="evenodd" d="M108 19.514C83.078 24.11 71.068 30.123 54.982 46.057c-9.022 8.936-11.293 11.852-14.797 19-4.825 9.841-6.666 17.414-5.79 23.808.625 4.563 6.961 18.923 9.016 20.437.729.537.454 1.197-.832 2-13.154 8.207-23.279 15.683-27.517 20.321C6.809 140.652 0 156.194 0 166c0 5.493 2.674 14.718 6.648 22.939 4.739 9.803 21.734 27.206 31.267 32.018 27.082 13.671 66.937 18.63 117.085 14.569 9.625-.779 21.1-2.107 25.5-2.95s9.8-1.794 12-2.114c8.928-1.298 34.269-9.39 43.241-13.807 15.916-7.835 20.259-11.285 20.26-16.092.001-3.402-3.303-21.762-5.59-31.063-.811-3.3-1.698-7.35-1.971-9s-1.909-7.5-3.635-13c-12.919-41.168-20.249-57.606-35.9-80.5-13.464-19.696-30.097-34.211-47.217-41.205-14.13-5.773-40.02-8.802-53.688-6.281m3 13.113c-19.669 3.9-33.023 10.529-45.624 22.648-11.33 10.897-15.446 17.968-16.145 27.737-.41 5.737-.095 7.541 2.221 12.702 1.672 3.726 4.574 7.785 7.624 10.663 7.386 6.971 6.301 11.815-3.35 14.962-13.527 4.409-32.559 19.815-38.031 30.784-2.465 4.942-2.785 6.638-2.642 14 .142 7.285.606 9.299 3.566 15.456 4.686 9.749 19.496 24.103 29.807 28.891 7.926 3.68 22.746 8.205 29.574 9.029 2.475.299 7.278.987 10.673 1.529 18.747 2.993 53.479 3 72.743.015 3.346-.519 8.589-1.162 11.65-1.429 3.061-.266 8.686-1.215 12.5-2.108s9.184-2.054 11.934-2.581c12.771-2.448 40.126-13.295 43.306-17.173 1.085-1.322.972-3.01-.66-9.922-1.081-4.582-2.246-10.13-2.588-12.33-.737-4.746-2.288-11.023-3.582-14.5-.512-1.375-1.154-3.856-1.426-5.514s-1.408-5.666-2.523-8.907-2.03-6.609-2.033-7.486-.627-2.782-1.385-4.236c-.759-1.453-2.357-5.503-3.551-9-1.195-3.496-2.701-7.707-3.348-9.357-2.324-5.929-17.812-35.982-19.567-37.969-.987-1.117-3.887-5.022-6.445-8.678-5.83-8.33-15.263-17.82-22.581-22.719-7.805-5.224-16.53-9.982-19.294-10.522-1.277-.249-5.248-1.171-8.823-2.049-6.528-1.604-27.329-2.862-32-1.936"/></svg>