<svg width="800" height="800" viewBox="0 0 800 800" fill="none" xmlns="http://www.w3.org/2000/svg">
<path opacity="0.4" d="M492.97 133.333H306.969C159.636 133.333 159.636 211.666 159.636 280.666V407C159.636 414.333 162.969 421 168.636 425.333C174.302 429.666 181.969 431.333 188.969 429.333C203.969 425.333 222.636 423.333 244.969 423.333C267.302 423.333 271.969 426 285.302 436L315.636 468C337.304 491.333 368.304 504.666 400.304 504.666C432.304 504.666 462.97 491.333 484.97 468L515.304 436C528.637 426 533.304 423.333 555.637 423.333C577.97 423.333 596.637 425.333 611.637 429.333C618.637 431.333 625.97 429.666 631.97 425.333C637.637 421 640.97 414 640.97 407V280.666C640.304 211.666 640.304 133.333 492.97 133.333Z" fill="#A3EEBE"/>
<path d="M475.81 226.667C467.144 218 452.81 218 444.144 226.667L422.477 248.334V89.0003C422.477 76.667 412.144 66.667 399.81 66.667C387.477 66.667 377.144 76.667 377.144 89.0003V248L355.81 226.667C347.144 218 332.81 218 324.144 226.667C315.477 235.334 315.477 249.667 324.144 258.334L384.144 318.334C384.477 318.667 384.477 318.667 384.81 318.667C386.81 320.334 388.81 322 391.477 323C394.144 324 397.144 324.667 400.144 324.667C403.144 324.667 405.81 324 408.81 323C411.477 322 414.144 320.334 416.144 318L476.144 258C484.477 249.667 484.477 235.334 475.81 226.667Z" fill="#16A34A"/>
<path d="M622.99 384.327C603.99 379.327 581.657 376.66 554.99 376.66C517.99 376.66 504.323 385.66 485.323 399.993C484.323 400.66 483.323 401.66 482.323 402.66L450.657 436.327C423.99 464.327 375.99 464.66 349.323 435.993L317.656 402.66C316.656 401.66 315.656 400.66 314.656 399.993C295.656 385.66 281.99 376.66 244.99 376.66C218.323 376.66 195.99 379.327 176.99 384.327C97.6562 405.66 97.6562 468.66 97.6562 523.993V554.993C97.6562 638.66 97.6562 733.327 275.99 733.327H523.99C642.323 733.327 702.323 673.327 702.323 554.993V523.993C702.323 468.66 702.323 405.66 622.99 384.327ZM477.657 613.327H322.323C309.656 613.327 299.323 602.993 299.323 589.993C299.323 576.994 309.656 566.66 322.323 566.66H477.657C490.323 566.66 500.657 576.994 500.657 589.993C500.657 602.993 490.323 613.327 477.657 613.327Z" fill="#16A34A"/>
<path opacity="0.4" d="M500.683 590C500.683 603 490.35 613.334 477.683 613.334H322.349C309.682 613.334 299.349 603 299.349 590C299.349 577 309.682 566.667 322.349 566.667H477.683C490.35 566.667 500.683 577 500.683 590Z" fill="#8EAC99"/>
</svg>
