<svg width="645" height="658" viewBox="0 0 645 658" fill="none" xmlns="http://www.w3.org/2000/svg">
<g filter="url(#filter0_d_348_3136)">
<path fill-rule="evenodd" clip-rule="evenodd" d="M7.33301 200H507.333V250H590.666V650H7.33301V200Z" fill="#BD60DA" fill-opacity="0.694118"/>
<path fill-rule="evenodd" clip-rule="evenodd" d="M7.33301 200V650H252.092C317.715 613.266 372.152 560.87 410.033 497.98C447.914 435.091 467.93 363.881 468.108 291.374C468.062 260.631 464.449 229.987 457.333 200H7.33301Z" fill="#B117E1" fill-opacity="0.666667"/>
<path fill-rule="evenodd" clip-rule="evenodd" d="M224 250H57.333C29.7188 250 7.33301 227.614 7.33301 200C7.33301 172.386 29.7188 150 57.333 150H507.333V250H357.333" fill="#8A09B3"/>
<path fill-rule="evenodd" clip-rule="evenodd" d="M422.804 133.333C422.804 206.971 363.109 266.666 289.471 266.666C215.833 266.666 156.138 206.971 156.138 133.333C156.138 59.6955 215.833 0 289.471 0C363.109 0 422.804 59.6955 422.804 133.333Z" fill="#F2A50C"/>
<path fill-rule="evenodd" clip-rule="evenodd" d="M289.462 0C215.824 0 156.129 59.6955 156.129 133.333C156.129 178.827 178.933 218.972 213.714 243.034C219.466 243.835 225.261 244.259 231.064 244.304C249.339 244.306 267.435 240.547 284.319 233.244C301.204 225.94 316.545 215.234 329.468 201.737C342.39 188.241 352.641 172.217 359.634 154.582C366.627 136.947 370.225 118.046 370.224 98.9588C370.211 66.9734 360.097 35.8856 341.448 10.5148C325.478 3.74933 307.898 0 289.462 0Z" fill="#F7C63D"/>
<path fill-rule="evenodd" clip-rule="evenodd" d="M289.462 28.9717C287.258 28.9715 285.075 29.401 283.039 30.2356C281.003 31.0702 279.154 32.2934 277.597 33.8354C276.039 35.3774 274.805 37.2079 273.965 39.222C273.124 41.2361 272.693 43.3944 272.697 45.5732V59.9938C254.531 66.573 241.154 83.407 241.154 103.451C241.154 129.307 263.352 149.903 289.462 149.903C298.213 149.903 304.273 156.056 304.273 163.216C304.273 170.377 298.213 176.53 289.462 176.53C280.71 176.53 274.683 170.377 274.683 163.216C274.682 158.822 272.916 154.607 269.772 151.5C266.628 148.392 262.364 146.647 257.919 146.647C253.473 146.647 249.209 148.392 246.065 151.5C242.921 154.607 241.155 158.822 241.154 163.216C241.154 183.26 254.531 200.094 272.697 206.673V221.094C272.693 223.273 273.124 225.431 273.964 227.445C274.805 229.459 276.039 231.29 277.597 232.832C279.154 234.374 281.003 235.597 283.039 236.432C285.075 237.266 287.258 237.696 289.462 237.696C291.666 237.696 293.848 237.266 295.884 236.432C297.92 235.597 299.769 234.374 301.327 232.832C302.884 231.29 304.118 229.459 304.959 227.445C305.799 225.431 306.23 223.273 306.226 221.094V206.706C324.412 200.137 337.801 183.275 337.801 163.216C337.801 137.361 315.571 116.765 289.462 116.765C280.71 116.765 274.683 110.611 274.683 103.451C274.683 96.2907 280.71 90.137 289.462 90.137C298.213 90.137 304.273 96.2907 304.273 103.451C304.273 107.846 306.04 112.06 309.184 115.168C312.328 118.275 316.591 120.02 321.037 120.02C325.483 120.02 329.747 118.275 332.89 115.168C336.034 112.06 337.801 107.846 337.801 103.451C337.801 83.3927 324.412 66.5304 306.226 59.9613V45.5732C306.23 43.3944 305.799 41.2361 304.959 39.222C304.118 37.2079 302.884 35.3774 301.327 33.8354C299.769 32.2934 297.92 31.0702 295.884 30.2356C293.848 29.401 291.666 28.9715 289.462 28.9717Z" fill="#BD60DA"/>
<path fill-rule="evenodd" clip-rule="evenodd" d="M294.833 583.333C299.253 583.333 303.493 581.577 306.618 578.452C309.744 575.326 311.5 571.087 311.5 566.667C311.5 562.246 309.744 558.007 306.618 554.882C303.493 551.756 299.253 550 294.833 550H211.5C207.079 550 202.84 551.756 199.715 554.882C196.589 558.007 194.833 562.246 194.833 566.667C194.833 571.087 196.589 575.326 199.715 578.452C202.84 581.577 207.079 583.333 211.5 583.333H294.833Z" fill="white"/>
<path d="M144.833 545.833C133.327 545.833 123.999 555.161 123.999 566.667C123.999 578.173 133.327 587.5 144.833 587.5C156.339 587.5 165.666 578.173 165.666 566.667C165.666 555.161 156.339 545.833 144.833 545.833Z" fill="white"/>
<path d="M78.1667 545.833C66.6607 545.833 57.3333 555.161 57.3333 566.667C57.3333 578.173 66.6607 587.5 78.1667 587.5C89.6726 587.5 99 578.173 99 566.667C99 555.161 89.6726 545.833 78.1667 545.833Z" fill="white"/>
<path fill-rule="evenodd" clip-rule="evenodd" d="M414.918 333.301C386.407 333.307 359.066 344.638 338.908 364.802C318.751 384.965 307.428 412.309 307.431 440.82C307.486 462.997 314.397 484.613 327.218 502.708C340.039 520.803 358.141 534.49 379.045 541.895C424.696 484.399 453.923 416.613 463.876 345.15C448.725 337.379 431.945 333.318 414.918 333.301Z" fill="#BD60DA"/>
<path fill-rule="evenodd" clip-rule="evenodd" d="M407.333 383.333H640.666V516.666H407.333C370.514 516.666 340.666 486.819 340.666 450C340.666 413.181 370.514 383.333 407.333 383.333Z" fill="#B117E1"/>
<path d="M407.333 470.834C418.839 470.834 428.167 461.506 428.167 450C428.167 438.494 418.839 429.167 407.333 429.167C395.827 429.167 386.5 438.494 386.5 450C386.5 461.506 395.827 470.834 407.333 470.834Z" fill="#E7E7E7"/>
</g>
<defs>
<filter id="filter0_d_348_3136" x="0" y="0" width="644.666" height="658" filterUnits="userSpaceOnUse" color-interpolation-filters="sRGB">
<feFlood flood-opacity="0" result="BackgroundImageFix"/>
<feColorMatrix in="SourceAlpha" type="matrix" values="0 0 0 0 0 0 0 0 0 0 0 0 0 0 0 0 0 0 127 0" result="hardAlpha"/>
<feOffset dy="4"/>
<feGaussianBlur stdDeviation="2"/>
<feComposite in2="hardAlpha" operator="out"/>
<feColorMatrix type="matrix" values="0 0 0 0 0 0 0 0 0 0 0 0 0 0 0 0 0 0 0.25 0"/>
<feBlend mode="normal" in2="BackgroundImageFix" result="effect1_dropShadow_348_3136"/>
<feBlend mode="normal" in="SourceGraphic" in2="effect1_dropShadow_348_3136" result="shape"/>
</filter>
</defs>
</svg>
